# xmcd
#
# Track frame offsets:
#	150
#	16225
#	31441
#	47619
#	60761
#	77009
#	93146
#	105245
#	118606
#	134228
#	147880
#
# Disc length: 2147 seconds
#
# Revision: 2
# Processed by: cddbd v1.5.1PL0 Copyright (c) Steve Scherf et al.
# Submitted via: EasyCDDAExtractor 7.0.9.1
#
DISCID=8208610b
DTITLE=Various Artist - HILLCREST 25
DYEAR=2005
DGENRE=Country
TTITLE0=Lonnie Spiker - Fallin
TTITLE1=Chelsee Oaks - A Life Less Ordinary
TTITLE2=Gary Fjellgaard - Sweet Nellie
TTITLE3=Brad Kepler - Good Morning And Goodbye
TTITLE4=Didi Perry - I'm Not Fool Enough
TTITLE5=The Larry Ford Blusgrass Band - Somehow Tonight
TTITLE6=Rhonda Grant - What Am I Gonna Do
TTITLE7=Micheal John Ahern - Heaven
TTITLE8=Skyla Spencer - You Said You'd Call Me
TTITLE9=Dave Lowis - This Flame
TTITLE10=Ren Lehman - Thorny Garden
EXTD=
EXTT0=
EXTT1=
EXTT2=
EXTT3=
EXTT4=
EXTT5=
EXTT6=
EXTT7=
EXTT8=
EXTT9=
EXTT10=
PLAYORDER=
